<svg xmlns="http://www.w3.org/2000/svg" aria-hidden="true" style="position:absolute;width:0;height:0;overflow:hidden">
    <defs>
    <symbol id="icon-close-btn" viewBox="0 0 32 32">
    <path d="M32 3.223l-3.223-3.223-12.777 12.777-12.777-12.777-3.223 3.223 12.777 12.777-12.777 12.777 3.223 3.223 12.777-12.777 12.777 12.777 3.223-3.223-12.777-12.777 12.777-12.777z"></path>
    </symbol>

    <symbol id="icon-x" viewBox="0 0 32 32">
    <path stroke-linejoin="round" stroke-linecap="round" stroke-miterlimit="4" stroke-width="2" d="M27.428 3.428l-24 24"></path>
    <path stroke-linejoin="round" stroke-linecap="round" stroke-miterlimit="4" stroke-width="2" d="M3.428 3.428l24 24"></path>
    </symbol>
    <symbol id="icon-arrow" viewBox="0 0 53 32">
    <path fill="#c79002" style="fill: var(--color1, #c79002)" d="M1.211 2.506c0.75-0.75 1.767-1.171 2.828-1.171s2.078 0.421 2.828 1.171l19.8 19.8 19.8-19.8c0.754-0.729 1.765-1.132 2.814-1.123s2.052 0.43 2.794 1.171c0.742 0.742 1.162 1.745 1.171 2.794s-0.394 2.059-1.123 2.814l-22.628 22.628c-0.75 0.75-1.767 1.171-2.828 1.171s-2.078-0.421-2.828-1.171l-22.628-22.628c-0.75-0.75-1.171-1.767-1.171-2.828s0.421-2.078 1.171-2.828z"></path>
    </symbol>
</defs>
</svg>
