<svg aria-hidden="true" style="position: absolute; width: 0; height: 0; overflow: hidden;" version="1.1" xmlns="http://www.w3.org/2000/svg" xmlns:xlink="http://www.w3.org/1999/xlink">
<defs>
<symbol id="icon-cil_arrow-left" viewBox="0 0 32 32">
<path d="M31.083 15h-26.078l6-6-1.414-1.414-8.414 8.414 8.414 8.414 1.414-1.414-6-6h26.078v-2z"></path>
</symbol>
<symbol id="icon-cil_arrow-right" viewBox="0 0 32 32">
<path d="M22.492 7.586l-1.414 1.414 6 6h-26.078v2h26.078l-6 6 1.414 1.414 8.414-8.414-8.414-8.414z"></path>
</symbol>
<symbol id="icon-entypo_location-pin" viewBox="0 0 32 32">
<path fill="#C79002" d="M16 3.215c-4.419 0-8 3.566-8 7.984 0 7.638 8 17.6 8 17.6s8-9.963 8-17.6c0-4.416-3.581-7.984-8-7.984zM16 15.616c-1.146 0-2.245-0.455-3.055-1.265s-1.265-1.909-1.265-3.055 0.455-2.245 1.265-3.055c0.81-0.81 1.909-1.265 3.055-1.265s2.245 0.455 3.055 1.265c0.81 0.81 1.265 1.909 1.265 3.055s-0.455 2.245-1.265 3.055c-0.81 0.81-1.909 1.265-3.055 1.265z"></path>
</symbol>
<symbol id="icon-fluent_phone-24-regular" viewBox="0 0 32 32">
<path fill="#C79002" d="M21 2.667c0.796 0 1.559 0.316 2.121 0.879s0.879 1.326 0.879 2.121v20.667c0 0.796-0.316 1.559-0.879 2.121s-1.326 0.879-2.121 0.879h-10c-0.796 0-1.559-0.316-2.121-0.879s-0.879-1.326-0.879-2.121v-20.667c0-0.796 0.316-1.559 0.879-2.121s1.326-0.879 2.121-0.879h10zM21 4.667h-10c-0.265 0-0.52 0.105-0.707 0.293s-0.293 0.442-0.293 0.707v20.667c0 0.552 0.448 1 1 1h10c0.265 0 0.52-0.105 0.707-0.293s0.293-0.442 0.293-0.707v-20.667c0-0.265-0.105-0.52-0.293-0.707s-0.442-0.293-0.707-0.293zM17.665 23.333c0.265-0 0.52 0.105 0.707 0.292s0.293 0.441 0.294 0.707-0.105 0.52-0.292 0.707c-0.187 0.188-0.441 0.293-0.707 0.294l-3.333 0.005c-0.265 0-0.52-0.105-0.707-0.292s-0.293-0.441-0.294-0.707c-0-0.265 0.105-0.52 0.292-0.707s0.441-0.293 0.707-0.294l3.333-0.005z"></path>
</symbol>
<symbol id="icon-Vector" viewBox="0 0 32 32">
<path fill="#C79002" d="M22 0c0.955 0 1.87 0.379 2.546 1.054s1.054 1.591 1.054 2.546v24.8c0 0.955-0.379 1.87-1.054 2.546s-1.591 1.054-2.546 1.054h-12c-0.955 0-1.87-0.379-2.546-1.054s-1.054-1.591-1.054-2.546v-24.8c0-0.955 0.379-1.87 1.054-2.546s1.591-1.054 2.546-1.054h12zM22 2.4h-12c-0.318 0-0.623 0.126-0.849 0.351s-0.351 0.53-0.351 0.849v24.8c0 0.662 0.538 1.2 1.2 1.2h12c0.318 0 0.624-0.126 0.848-0.352s0.352-0.53 0.352-0.848v-24.8c0-0.318-0.126-0.623-0.352-0.849s-0.53-0.351-0.848-0.351zM17.998 24.8c0.318-0 0.624 0.126 0.849 0.35s0.352 0.53 0.353 0.848-0.126 0.624-0.35 0.849c-0.225 0.225-0.53 0.352-0.848 0.353l-4 0.006c-0.318 0-0.624-0.126-0.849-0.35s-0.352-0.53-0.353-0.848 0.126-0.624 0.35-0.849c0.225-0.225 0.53-0.352 0.848-0.353l4-0.006z"></path>
</symbol>
</defs>
</svg>
