<svg aria-hidden="true" style="position: absolute; width: 0; height: 0; overflow: hidden;" version="1.1" xmlns="http://www.w3.org/2000/svg" xmlns:xlink="http://www.w3.org/1999/xlink">
<defs>
<symbol id="icon-cil_arrow-left" viewBox="0 0 32 32">
<path d="M31.083 15h-26.078l6-6-1.414-1.414-8.414 8.414 8.414 8.414 1.414-1.414-6-6h26.078v-2z"></path>
</symbol>
<symbol id="icon-cil_arrow-right" viewBox="0 0 32 32">
<path d="M22.492 7.586l-1.414 1.414 6 6h-26.078v2h26.078l-6 6 1.414 1.414 8.414-8.414-8.414-8.414z"></path>
</symbol>
<symbol id="icon-entypo_location-pin" viewBox="0 0 32 32">
<path fill="#C79002" d="M16 3.215c-4.419 0-8 3.566-8 7.984 0 7.638 8 17.6 8 17.6s8-9.963 8-17.6c0-4.416-3.581-7.984-8-7.984zM16 15.616c-1.146 0-2.245-0.455-3.055-1.265s-1.265-1.909-1.265-3.055 0.455-2.245 1.265-3.055c0.81-0.81 1.909-1.265 3.055-1.265s2.245 0.455 3.055 1.265c0.81 0.81 1.265 1.909 1.265 3.055s-0.455 2.245-1.265 3.055c-0.81 0.81-1.909 1.265-3.055 1.265z"></path>
</symbol>
<symbol id="icon-fluent_phone-24-regular" viewBox="0 0 32 32">
<path fill="#C79002" d="M21 2.667c0.796 0 1.559 0.316 2.121 0.879s0.879 1.326 0.879 2.121v20.667c0 0.796-0.316 1.559-0.879 2.121s-1.326 0.879-2.121 0.879h-10c-0.796 0-1.559-0.316-2.121-0.879s-0.879-1.326-0.879-2.121v-20.667c0-0.796 0.316-1.559 0.879-2.121s1.326-0.879 2.121-0.879h10zM21 4.667h-10c-0.265 0-0.52 0.105-0.707 0.293s-0.293 0.442-0.293 0.707v20.667c0 0.552 0.448 1 1 1h10c0.265 0 0.52-0.105 0.707-0.293s0.293-0.442 0.293-0.707v-20.667c0-0.265-0.105-0.52-0.293-0.707s-0.442-0.293-0.707-0.293zM17.665 23.333c0.265-0 0.52 0.105 0.707 0.292s0.293 0.441 0.294 0.707-0.105 0.52-0.292 0.707c-0.187 0.188-0.441 0.293-0.707 0.294l-3.333 0.005c-0.265 0-0.52-0.105-0.707-0.292s-0.293-0.441-0.294-0.707c-0-0.265 0.105-0.52 0.292-0.707s0.441-0.293 0.707-0.294l3.333-0.005z"></path>
</symbol>
<symbol id="icon-Vector" viewBox="0 0 32 32">
<path fill="#C79002" d="M22 0c0.955 0 1.87 0.379 2.546 1.054s1.054 1.591 1.054 2.546v24.8c0 0.955-0.379 1.87-1.054 2.546s-1.591 1.054-2.546 1.054h-12c-0.955 0-1.87-0.379-2.546-1.054s-1.054-1.591-1.054-2.546v-24.8c0-0.955 0.379-1.87 1.054-2.546s1.591-1.054 2.546-1.054h12zM22 2.4h-12c-0.318 0-0.623 0.126-0.849 0.351s-0.351 0.53-0.351 0.849v24.8c0 0.662 0.538 1.2 1.2 1.2h12c0.318 0 0.624-0.126 0.848-0.352s0.352-0.53 0.352-0.848v-24.8c0-0.318-0.126-0.623-0.352-0.849s-0.53-0.351-0.848-0.351zM17.998 24.8c0.318-0 0.624 0.126 0.849 0.35s0.352 0.53 0.353 0.848-0.126 0.624-0.35 0.849c-0.225 0.225-0.53 0.352-0.848 0.353l-4 0.006c-0.318 0-0.624-0.126-0.849-0.35s-0.352-0.53-0.353-0.848 0.126-0.624 0.35-0.849c0.225-0.225 0.53-0.352 0.848-0.353l4-0.006z"></path>
</symbol>
<symbol id="icon-arrow" viewBox="0 0 55 32">
<path d="M38.558 1.576l-2.424 2.424 10.285 10.285h-44.705v3.429h44.704l-10.285 10.285 2.424 2.424 14.424-14.424-14.424-14.424z"></path>
</symbol>
<symbol id="icon-telegram" viewBox="0 0 32 32">
<path d="M26.069 3.996c-0.342 0.025-0.66 0.105-0.953 0.23l0.019-0.007h-0.003c-0.285 0.113-1.64 0.683-3.7 1.547l-7.383 3.109c-5.297 2.232-10.504 4.427-10.504 4.427l0.063-0.024s-0.36 0.117-0.733 0.373c-0.233 0.149-0.432 0.341-0.587 0.568-0.18 0.261-0.287 0.585-0.287 0.933 0 0.063 0.003 0.124 0.010 0.185l-0.001-0.007c0.089 0.721 0.557 1.155 0.893 1.393 0.34 0.243 0.664 0.355 0.664 0.355h0.008l4.884 1.645c0.219 0.703 1.488 4.875 1.792 5.836 0.18 0.573 0.356 0.933 0.575 1.207 0.107 0.14 0.229 0.257 0.379 0.352 0.077 0.045 0.16 0.080 0.247 0.107l-0.051-0.013c0.015 0.004 0.027 0.016 0.039 0.020 0.040 0.011 0.067 0.015 0.117 0.023 0.773 0.235 1.395-0.245 1.395-0.245l0.035-0.028 2.883-2.625 4.832 3.707 0.111 0.048c1.007 0.441 2.027 0.196 2.565-0.239 0.544-0.437 0.755-0.996 0.755-0.996l0.035-0.089 3.733-19.129c0.107-0.472 0.133-0.915 0.017-1.343-0.121-0.435-0.4-0.808-0.781-1.048-0.277-0.171-0.612-0.272-0.971-0.272-0.034 0-0.067 0.001-0.1 0.003l0.005-0zM25.969 6.045c-0.004 0.064 0.008 0.056-0.020 0.177v0.011l-3.699 18.931c-0.016 0.027-0.044 0.085-0.117 0.145-0.079 0.061-0.14 0.1-0.465-0.028l-5.911-4.532-3.569 3.253 0.749-4.789 9.656-9c0.399-0.369 0.267-0.448 0.267-0.448 0.027-0.453-0.601-0.133-0.601-0.133l-12.179 7.545-0.004-0.020-5.849-1.972c0.012-0.004 0.021-0.009 0.031-0.014l-0.001 0.001 0.032-0.015 0.031-0.011 10.508-4.427c2.652-1.117 5.324-2.241 7.379-3.109 1.219-0.513 2.44-1.024 3.66-1.531 0.083-0.032 0.044-0.032 0.103-0.032z"></path>
</symbol>
<symbol id="icon-instagram" viewBox="0 0 32 32">
<path fill="#C79002" d="M9.953 1.421c1.564-0.072 2.063-0.088 6.047-0.088s4.483 0.017 6.045 0.088c1.563 0.071 2.629 0.32 3.563 0.681 0.977 0.369 1.864 0.947 2.597 1.693 0.747 0.732 1.323 1.617 1.691 2.596 0.363 0.933 0.611 2 0.683 3.56 0.072 1.567 0.088 2.065 0.088 6.048 0 3.984-0.017 4.483-0.088 6.047-0.071 1.56-0.32 2.627-0.683 3.56-0.389 1.017-0.964 1.884-1.69 2.598l-0.001 0.001c-0.733 0.747-1.62 1.323-2.597 1.691-0.933 0.363-2 0.611-3.56 0.683-1.565 0.072-2.064 0.088-6.048 0.088s-4.483-0.017-6.047-0.088c-1.56-0.071-2.627-0.32-3.56-0.683-1.017-0.389-1.884-0.964-2.598-1.69l-0.001-0.001c-0.727-0.714-1.303-1.581-1.675-2.548l-0.017-0.049c-0.361-0.933-0.609-2-0.681-3.56-0.072-1.567-0.088-2.065-0.088-6.048 0-3.984 0.017-4.483 0.088-6.045s0.32-2.629 0.681-3.563c0.39-1.016 0.966-1.883 1.692-2.596l0.001-0.001c0.714-0.727 1.58-1.303 2.547-1.675l0.049-0.017c0.933-0.361 2-0.609 3.56-0.681h0.001zM21.927 4.061c-1.547-0.071-2.011-0.085-5.927-0.085s-4.38 0.015-5.927 0.085c-1.431 0.065-2.207 0.304-2.724 0.505-0.684 0.267-1.173 0.583-1.687 1.096-0.475 0.462-0.848 1.025-1.086 1.655l-0.010 0.031c-0.201 0.517-0.44 1.293-0.505 2.724-0.071 1.547-0.085 2.011-0.085 5.927s0.015 4.38 0.085 5.927c0.065 1.431 0.304 2.207 0.505 2.724 0.235 0.636 0.609 1.213 1.096 1.687 0.473 0.487 1.051 0.861 1.687 1.096 0.517 0.201 1.293 0.44 2.724 0.505 1.547 0.071 2.009 0.085 5.927 0.085s4.38-0.015 5.927-0.085c1.431-0.065 2.207-0.304 2.724-0.505 0.684-0.267 1.173-0.583 1.687-1.096 0.487-0.473 0.861-1.051 1.096-1.687 0.201-0.517 0.44-1.293 0.505-2.724 0.071-1.547 0.085-2.011 0.085-5.927s-0.015-4.38-0.085-5.927c-0.065-1.431-0.304-2.207-0.505-2.724-0.267-0.684-0.583-1.173-1.096-1.687-0.462-0.474-1.025-0.848-1.655-1.086l-0.031-0.010c-0.517-0.201-1.293-0.44-2.724-0.505zM14.127 20.521c0.554 0.236 1.198 0.373 1.874 0.373 2.703 0 4.893-2.191 4.893-4.893 0-2.112-1.338-3.911-3.212-4.597l-0.034-0.011c-0.49-0.181-1.057-0.286-1.648-0.286-2.703 0-4.893 2.191-4.893 4.893 0 2.026 1.232 3.765 2.988 4.508l0.032 0.012zM10.669 10.669c1.364-1.364 3.249-2.208 5.331-2.208 4.163 0 7.539 3.375 7.539 7.539 0 2.082-0.844 3.966-2.208 5.331v0c-1.364 1.364-3.249 2.208-5.331 2.208-4.163 0-7.539-3.375-7.539-7.539 0-2.082 0.844-3.966 2.208-5.331v0zM25.211 9.584c0.345-0.326 0.559-0.786 0.559-1.296 0-0.984-0.798-1.782-1.782-1.782-0.474 0-0.904 0.185-1.224 0.487l0.001-0.001c-0.345 0.326-0.559 0.786-0.559 1.296 0 0.984 0.798 1.782 1.782 1.782 0.474 0 0.904-0.185 1.224-0.487l-0.001 0.001z"></path>
</symbol>
<symbol id="icon-facebook" viewBox="0 0 32 32">
<path d="M14.26 11.916v1.836h-1.344v2.244h1.344v6.671h2.763v-6.671h1.853s0.175-1.076 0.259-2.253h-2.101v-1.533c0-0.231 0.301-0.539 0.6-0.539h1.504v-2.337h-2.047c-2.899 0-2.831 2.247-2.831 2.583z"></path>
<path d="M8 5.333c-1.473 0-2.667 1.194-2.667 2.667v0 16c0 1.473 1.194 2.667 2.667 2.667v0h16c1.473 0 2.667-1.194 2.667-2.667v0-16c0-1.473-1.194-2.667-2.667-2.667v0h-16zM8 2.667h16c2.946 0 5.333 2.388 5.333 5.333v0 16c0 2.946-2.388 5.333-5.333 5.333v0h-16c-2.946 0-5.333-2.388-5.333-5.333v0-16c0-2.946 2.388-5.333 5.333-5.333v0z"></path>
</symbol>
<symbol id="icon-akar-icons_instagram" viewBox="0 0 32 32">
<path d="M9.957 1.422c1.565-0.072 2.063-0.088 6.049-0.088s4.484 0.017 6.047 0.088c1.563 0.071 2.63 0.32 3.564 0.682 0.978 0.369 1.865 0.947 2.598 1.694 0.747 0.732 1.323 1.618 1.691 2.597 0.363 0.934 0.611 2.001 0.683 3.561 0.072 1.567 0.088 2.066 0.088 6.050 0 3.985-0.017 4.484-0.088 6.049-0.071 1.561-0.32 2.628-0.683 3.561-0.389 1.017-0.964 1.884-1.69 2.599l-0.001 0.001c-0.734 0.747-1.621 1.323-2.598 1.691-0.934 0.363-2.001 0.611-3.561 0.683-1.566 0.072-2.065 0.088-6.050 0.088s-4.484-0.017-6.049-0.088c-1.561-0.071-2.628-0.32-3.561-0.683-1.017-0.389-1.884-0.964-2.599-1.69l-0.001-0.001c-0.728-0.715-1.303-1.581-1.676-2.549l-0.017-0.049c-0.361-0.934-0.61-2.001-0.682-3.561-0.072-1.567-0.088-2.066-0.088-6.050 0-3.985 0.017-4.484 0.088-6.047s0.32-2.63 0.682-3.564c0.39-1.017 0.966-1.884 1.693-2.597l0.001-0.001c0.714-0.728 1.581-1.303 2.548-1.676l0.049-0.017c0.934-0.361 2.001-0.61 3.561-0.682h0.001zM21.934 4.063c-1.547-0.071-2.011-0.085-5.929-0.085s-4.382 0.015-5.929 0.085c-1.431 0.065-2.207 0.304-2.725 0.505-0.684 0.267-1.174 0.583-1.687 1.096-0.475 0.462-0.848 1.026-1.086 1.656l-0.010 0.031c-0.201 0.518-0.44 1.294-0.505 2.725-0.071 1.547-0.085 2.011-0.085 5.929s0.015 4.382 0.085 5.929c0.065 1.431 0.304 2.207 0.505 2.725 0.235 0.636 0.61 1.214 1.096 1.687 0.473 0.487 1.051 0.862 1.687 1.096 0.518 0.201 1.294 0.44 2.725 0.506 1.547 0.071 2.010 0.085 5.929 0.085s4.382-0.015 5.929-0.085c1.431-0.065 2.207-0.304 2.725-0.506 0.684-0.267 1.174-0.583 1.687-1.096 0.487-0.474 0.862-1.051 1.096-1.687 0.201-0.518 0.44-1.294 0.506-2.725 0.071-1.547 0.085-2.011 0.085-5.929s-0.015-4.382-0.085-5.929c-0.065-1.431-0.304-2.207-0.506-2.725-0.267-0.684-0.583-1.174-1.096-1.687-0.462-0.475-1.026-0.848-1.656-1.086l-0.031-0.010c-0.518-0.201-1.294-0.44-2.725-0.505zM14.132 20.529c0.554 0.236 1.198 0.373 1.874 0.373 2.703 0 4.895-2.192 4.895-4.895 0-2.112-1.338-3.912-3.213-4.598l-0.034-0.011c-0.491-0.181-1.057-0.286-1.648-0.286-2.703 0-4.895 2.192-4.895 4.895 0 2.027 1.232 3.767 2.989 4.51l0.032 0.012zM10.673 10.673c1.365-1.365 3.25-2.209 5.333-2.209 4.165 0 7.541 3.376 7.541 7.541 0 2.082-0.844 3.968-2.209 5.333v0c-1.365 1.365-3.25 2.209-5.333 2.209-4.165 0-7.541-3.376-7.541-7.541 0-2.082 0.844-3.968 2.209-5.333v0zM25.22 9.587c0.345-0.326 0.559-0.786 0.559-1.296 0-0.984-0.798-1.782-1.782-1.782-0.474 0-0.905 0.185-1.224 0.487l0.001-0.001c-0.345 0.326-0.559 0.786-0.559 1.296 0 0.984 0.798 1.782 1.782 1.782 0.474 0 0.905-0.185 1.224-0.487l-0.001 0.001z"></path>
</symbol>
<symbol id="icon-jam_facebook-square" viewBox="0 0 32 32">
<path d="M14.265 11.92v1.837h-1.344v2.245h1.344v6.673h2.764v-6.673h1.854s0.175-1.076 0.259-2.254h-2.102v-1.534c0-0.231 0.301-0.539 0.6-0.539h1.505v-2.338h-2.047c-2.9 0-2.832 2.247-2.832 2.584z"></path>
<path d="M8.003 5.335c-1.473 0-2.668 1.194-2.668 2.668v0 16.006c0 1.473 1.194 2.668 2.668 2.668v0h16.006c1.473 0 2.668-1.194 2.668-2.668v0-16.006c0-1.473-1.194-2.668-2.668-2.668v0h-16.006zM8.003 2.668h16.006c2.947 0 5.335 2.389 5.335 5.335v0 16.006c0 2.947-2.389 5.335-5.335 5.335v0h-16.006c-2.947 0-5.335-2.389-5.335-5.335v0-16.006c0-2.947 2.389-5.335 5.335-5.335v0z"></path>
</symbol>
<symbol id="icon-la_telegram-plane" viewBox="0 0 32 32">
<path d="M26.079 3.997c-0.343 0.025-0.66 0.105-0.953 0.23l0.019-0.007h-0.003c-0.285 0.113-1.641 0.683-3.701 1.547l-7.385 3.11c-5.299 2.233-10.508 4.428-10.508 4.428l0.063-0.024s-0.36 0.117-0.734 0.373c-0.233 0.149-0.432 0.341-0.587 0.568-0.18 0.262-0.287 0.585-0.287 0.934 0 0.063 0.003 0.124 0.010 0.185l-0.001-0.008c0.089 0.722 0.558 1.155 0.894 1.394 0.34 0.243 0.664 0.355 0.664 0.355h0.008l4.886 1.646c0.219 0.703 1.489 4.876 1.793 5.838 0.18 0.574 0.356 0.934 0.575 1.207 0.107 0.14 0.229 0.257 0.379 0.352 0.077 0.045 0.16 0.080 0.247 0.107l-0.051-0.013c0.015 0.004 0.027 0.016 0.039 0.020 0.040 0.011 0.067 0.015 0.117 0.023 0.774 0.235 1.395-0.245 1.395-0.245l0.035-0.028 2.884-2.626 4.834 3.708 0.111 0.048c1.007 0.442 2.027 0.196 2.566-0.239 0.544-0.438 0.755-0.996 0.755-0.996l0.035-0.089 3.735-19.136c0.107-0.472 0.133-0.915 0.017-1.343-0.121-0.435-0.4-0.808-0.782-1.048-0.277-0.171-0.613-0.272-0.972-0.272-0.034 0-0.067 0.001-0.1 0.003l0.005-0zM25.979 6.047c-0.004 0.064 0.008 0.056-0.020 0.177v0.011l-3.7 18.937c-0.016 0.027-0.044 0.085-0.117 0.145-0.079 0.061-0.14 0.1-0.465-0.028l-5.913-4.534-3.571 3.255 0.75-4.791 9.659-9.003c0.399-0.369 0.267-0.448 0.267-0.448 0.027-0.454-0.602-0.133-0.602-0.133l-12.183 7.548-0.004-0.020-5.851-1.973c0.012-0.004 0.021-0.009 0.031-0.014l-0.001 0.001 0.032-0.015 0.031-0.011 10.512-4.428c2.653-1.118 5.326-2.242 7.381-3.11 1.219-0.514 2.441-1.024 3.661-1.531 0.083-0.032 0.044-0.032 0.103-0.032z"></path>
</symbol>
</defs>
</svg>
